HIERARCHY
ROOT pelvis
{
  OFFSET 0 100 0
  CHANNELS 6 Xposition Yposition Zposition Zrotation Xrotation Yrotation
  JOINT pelvis_right_femur
  {
    OFFSET -10.78128 -3.44521 -0.5502486
    CHANNELS 3 Zrotation Xrotation Yrotation
    JOINT right_femur_tibia
    {
      OFFSET -0.8047443 -44.0398 -0.1307829
      CHANNELS 3 Zrotation Xrotation Yrotation
      JOINT right_tibia_foot
      {
        OFFSET 3.006224 -47.83518 -5
        CHANNELS 3 Zrotation Xrotation Yrotation
        End Site
        {
          OFFSET 0 -5 15
        }
      }
    }
  }
  JOINT pelvis_left_femur
  {
    OFFSET 10.78128 -3.44521 -0.5502486
    CHANNELS 3 Zrotation Xrotation Yrotation
    JOINT left_femur_tibia
    {
      OFFSET 0.8047443 -44.0398 -0.1307829
      CHANNELS 3 Zrotation Xrotation Yrotation
      JOINT left_tibia_foot
      {
        OFFSET -4.370144 -48.10324 -4.275266
        CHANNELS 3 Zrotation Xrotation Yrotation
        End Site
        {
          OFFSET 0 -5 15
        }
      }
    }
  }
  JOINT pelvis_spine1
  {
    OFFSET 0 6.468898 -3.129235
    CHANNELS 3 Zrotation Xrotation Yrotation
    JOINT spine1
    {
      OFFSET 0 23.15396 4.99043
      CHANNELS 3 Zrotation Xrotation Yrotation
      JOINT spine2
      {
        OFFSET 0 20.79997 -5.064912
        CHANNELS 3 Zrotation Xrotation Yrotation
        JOINT neck
        {
          OFFSET 0 14.38658 9.616178
          CHANNELS 3 Zrotation Xrotation Yrotation
          End Site
          {
            OFFSET 0 20 0
          }
        }
      }
      JOINT right_manubrium
      {
        OFFSET -5.722621 16.35077 3.967754
        CHANNELS 3 Zrotation Xrotation Yrotation
        JOINT right_clavicle
        {
          OFFSET -13.16364 1.694482 -4.693211
          CHANNELS 3 Zrotation Xrotation Yrotation
          JOINT right_humerus
          {
            OFFSET -28.5034 -0.3100689 -2.792744
            CHANNELS 3 Zrotation Xrotation Yrotation
            JOINT right_radius
            {
              OFFSET -25.15693 0.02248979 -1.271978
              CHANNELS 3 Zrotation Xrotation Yrotation
              End Site
              {
                OFFSET -15 0 0
              }
            }
          }
        }
      }
      JOINT left_manubrium
      {
        OFFSET 5.722621 16.35077 3.967754
        CHANNELS 3 Zrotation Xrotation Yrotation
        JOINT left_clavicle
        {
          OFFSET 13.16364 1.694482 -4.693211
          CHANNELS 3 Zrotation Xrotation Yrotation
          JOINT left_humerus
          {
            OFFSET 29.39168 -1.063119 -2.237045
            CHANNELS 3 Zrotation Xrotation Yrotation
            JOINT left_radius
            {
              OFFSET 24.59957 -0.9528479 0.9047498
              CHANNELS 3 Zrotation Xrotation Yrotation
              End Site
              {
                OFFSET 15 -0 -0
              }
            }
          }
        }
      }
    }
  }
}
MOTION
Frames: 17
Frame Time: 0.0416666666667
0 103.5113 0 1.099263 -0.9875226 0.02677879 3.075256 -17.14024 8.18194 -0 35.42736 -0 -5.243252 -16.56643 -3.626209 -7.085425 12.03969 -23.63916 -0 4.753908 -0 5.089993 -19.14766 25.51196 -2.488633 -2.889674 5.817682 2.870809 8.741408 -7.973012 0.155082 19.7893 8.600337 4.643519 -27.32767 9.189578 6.624818 -20.05709 12.09173 81.20134 36.31242 -14.92345 -0 0 19.45368 -10.08836 10.42506 6.297706 9.010207 -20.97121 4.164041 -95.08992 20.22042 22.96707 0 0 -9.341911 14.83132 15.10453 -5.570869
0.1825218 103.4359 1.523972 -0.008102918 -0.3715383 -0.07620506 4.798554 -20.73151 8.888325 -0 36.22015 -0 -6.035884 -14.67673 -3.911304 -6.056889 12.29426 -23.18672 -0 5.645017 -0 3.546762 -20.7099 24.69193 -2.453656 -2.688807 5.542088 2.985639 8.83457 -8.103963 0.1497825 19.73647 8.724129 4.729841 -27.23761 9.188974 6.627363 -19.69527 12.21495 81.75165 36.14983 -15.58257 -0 0 18.68657 -10.25182 10.59151 6.336841 8.903413 -21.07337 3.775563 -94.60353 20.23784 22.19514 0 0 -10.21983 14.3605 14.73785 -5.10643
0.3955424 103.1211 3.481822 -0.477111 1.282533 -0.1437706 5.956237 -26.05591 8.39478 -0 30.27704 -0 -6.386036 -12.43788 -3.327278 -5.962543 12.26273 -21.73021 -0 5.482745 -0 5.508599 -21.60464 24.3671 -2.424553 -2.236262 4.742112 3.272086 8.829597 -8.463895 0.1082388 19.62217 9.142142 4.957198 -27.44464 9.414666 6.316694 -18.97642 12.35532 83.37085 35.64524 -17.27037 -0 0 16.8953 -10.47642 10.65319 6.261953 8.868458 -21.28698 3.075299 -93.54924 20.27756 20.38488 0 0 -12.18211 13.77766 13.98836 -4.744881
0.6212008 102.5298 5.940111 -0.7677545 1.969999 -0.1384791 6.226308 -29.46169 7.139125 -0 25.52941 -0 -6.673752 -9.758207 -2.88144 -5.763683 12.67366 -19.97651 -0 5.864769 -0 5.512762 -22.54287 22.84353 -2.422066 -1.972725 4.238689 3.433972 8.807345 -8.685456 0.08323545 19.58167 9.379136 5.069817 -27.56317 9.554675 6.036703 -18.53522 12.39496 84.43366 35.25289 -18.35672 -0 0 15.7131 -10.69424 10.6329 6.217106 8.873229 -21.46378 2.603658 -92.79944 20.281 19.15011 0 0 -13.61273 13.47483 13.539 -4.57755
0.8544835 101.7488 8.94295 -0.9389056 2.871181 -0.01594292 6.569925 -32.50597 6.379602 -0 20.57017 -0 -6.459594 -7.528884 -2.548833 -5.741721 13.11197 -18.48806 -0 6.701333 -0 5.675552 -23.18456 21.67265 -2.414487 -1.744903 3.764719 3.590674 8.825002 -8.899974 0.07867205 19.5591 9.564265 5.141696 -27.58603 9.672938 5.784212 -18.05278 12.41159 85.48682 34.86565 -19.51017 -0 0 14.43656 -10.87132 10.62722 6.143283 8.862683 -21.70341 2.05528 -91.93682 20.27744 17.76871 0 0 -15.34893 13.19067 13.0654 -4.346228
1.07862 100.8073 12.57413 -1.023098 3.433001 0.2569953 6.618925 -34.62035 5.459177 -0 16.12898 -0 -6.056111 -5.162581 -2.336149 -5.706651 13.85534 -16.9124 -0 8.197182 -0 4.99806 -23.54682 20.01831 -2.408436 -1.583803 3.434718 3.680553 8.870755 -9.057346 0.07763045 19.55172 9.654812 5.165538 -27.48756 9.696289 5.581698 -17.66864 12.41227 86.27452 34.51992 -20.39272 -0 0 13.43224 -11.17113 10.67318 6.167095 8.834126 -21.92607 1.571989 -91.17552 20.24095 16.63921 0 0 -16.83208 12.87024 12.663 -4.018244
1.278939 99.83316 16.95867 -1.140023 3.847431 0.7328009 6.722121 -35.93968 4.726426 -0 12.3985 -0 -5.46238 -2.709726 -2.272288 -5.579495 14.85535 -15.31454 -0 10.81765 -0 3.43148 -23.40029 17.85244 -2.395021 -1.463843 3.202139 3.725369 8.965197 -9.184113 0.08534936 19.54564 9.668735 5.15116 -27.25117 9.635695 5.44212 -17.31631 12.40954 86.90276 34.2081 -21.14824 -0 0 12.56184 -11.57052 10.80006 6.273909 8.772143 -22.15316 1.086779 -90.42783 20.18415 15.61703 0 0 -18.24261 12.45865 12.25525 -3.519633
1.43736 98.99188 22.17773 -1.337028 3.955461 1.414064 6.884805 -35.95798 4.255814 -0 10.19604 -0 -4.854038 -0.4862099 -2.430754 -5.227878 16.0026 -13.74523 -0 14.85139 -0 0.70897 -22.33792 15.00432 -2.37273 -1.374861 3.06864 3.716257 9.103085 -9.276582 0.09807324 19.53833 9.609705 5.106964 -26.88626 9.484637 5.351021 -17.01425 12.40812 87.36847 33.9104 -21.73961 -0 0 11.86775 -12.11875 11.00871 6.489651 8.675328 -22.36652 0.6171997 -89.72838 20.10851 14.76019 0 0 -19.46995 11.92399 11.84699 -2.834632
1.539827 98.53601 28.19455 -1.725795 3.782078 2.217652 7.327163 -34.23921 4.327833 -0 10.46033 -0 -4.686923 0.768099 -2.733038 -4.507859 16.80776 -12.48688 -0 20.66115 -0 -2.833634 -19.7378 11.78817 -2.341272 -1.31082 3.02943 3.658307 9.284353 -9.334215 0.1177024 19.52901 9.484273 5.037242 -26.40281 9.255215 5.315555 -16.76144 12.41099 87.67445 33.63882 -22.16766 -0 0 11.34991 -12.78393 11.29296 6.803862 8.538113 -22.55465 0.1637492 -89.08854 20.02892 14.07729 0 0 -20.49607 11.27078 11.42905 -1.964667
1.592245 98.66026 34.72799 -2.325717 3.360424 2.876475 8.012478 -30.72791 4.844629 -0 13.38153 -0 -5.660969 0.1319731 -2.935214 -3.444157 16.27356 -11.74472 -0 28.08636 -0 -5.930659 -15.39272 9.132181 -2.306417 -1.271864 3.087421 3.562132 9.48989 -9.347889 0.1421869 19.52097 9.310488 4.952159 -25.85691 8.979103 5.347425 -16.58544 12.42244 87.77721 33.43571 -22.37399 -0 0 11.06795 -13.4758 11.61737 7.179345 8.367598 -22.68439 -0.2268982 -88.58572 19.96576 13.65326 0 0 -21.19425 10.56986 11.04086 -1.002628
1.651262 99.33904 41.31244 -2.909792 2.796597 3.023535 8.673581 -26.17254 5.330516 -0 16.87659 -0 -7.605113 -2.392422 -2.844135 -2.528602 13.31091 -11.24252 -0 36.75527 -0 -7.041892 -10.2642 8.157767 -2.27865 -1.259605 3.217117 3.461224 9.678716 -9.321344 0.1654862 19.5169 9.133018 4.871089 -25.36351 8.722304 5.450576 -16.50305 12.44557 87.66461 33.35699 -22.34634 -0 0 11.03917 -14.02137 11.91494 7.522348 8.19676 -22.73278 -0.4914445 -88.29815 19.93359 13.52957 0 0 -21.48904 9.97848 10.75522 -0.161718
1.777628 100.3872 47.62928 -2.857898 1.512231 2.516839 8.746799 -20.81015 5.498566 -0 17.93023 -0 -8.30942 -5.167266 -2.940236 -2.366987 8.452396 -10.29179 -0 46.93201 -0 -6.641689 -6.026582 9.161299 -2.262525 -1.266465 3.364684 3.383117 9.817667 -9.275367 0.1816273 19.51733 8.9928 4.8105 -25.00875 8.532055 5.58405 -16.49431 12.47563 87.42909 33.38256 -22.17405 -0 0 11.17315 -14.34933 12.13372 7.76694 8.061749 -22.72039 -0.6211562 -88.20711 19.92395 13.61884 0 0 -21.47559 9.589823 10.60362 0.4118057
1.920843 101.7934 53.62793 -1.933597 -1.274927 1.634191 7.962143 -14.08072 5.598432 -0 17.12548 -0 -7.021208 -6.918506 -3.691456 -2.808226 3.51566 -9.102777 -0 57.92467 -0 -6.620423 -3.794316 11.39323 -2.2525 -1.278332 3.516847 3.311851 9.928602 -9.217907 0.1925924 19.52347 8.872147 4.76185 -24.72565 8.371183 5.7121 -16.52403 12.508 87.15036 33.43516 -21.92878 -0 0 11.37786 -14.60505 12.3056 7.97421 7.94515 -22.68087 -0.6892091 -88.20767 19.92165 13.80862 0 0 -21.31323 9.286479 10.51874 0.860298
2.005721 103.4689 59.3156 -0.6940179 -4.104812 0.8083362 6.634576 -7.234669 5.397204 -0 15.84571 -0 -6.071105 -7.983328 -4.180811 -3.234828 -1.899009 -8.285413 -0 64.73525 -0 -6.820019 -3.858074 13.30168 -2.242355 -1.281026 3.709885 3.204545 10.06382 -9.132407 0.2047304 19.54239 8.715018 4.701143 -24.36105 8.155631 5.829216 -16.57587 12.54455 86.81713 33.4454 -21.58246 -0 0 11.64015 -15.02408 12.50444 8.278464 7.788626 -22.62336 -0.7879256 -88.20515 19.92076 14.06423 0 0 -21.08181 8.848151 10.39803 1.476523
2.059277 104.9084 64.75654 0.2759862 -4.941851 0.1824098 5.358895 -1.910599 4.605186 -0 13.40647 -0 -6.009292 -8.968167 -3.368597 -2.934536 -8.885304 -7.413771 -0 62.80692 -0 -6.228697 -4.868338 14.10975 -2.230486 -1.243852 3.932198 3.026238 10.24548 -9.009199 0.2253508 19.58832 8.492988 4.612377 -23.82498 7.845099 5.859904 -16.62774 12.56871 86.533 33.28874 -21.17192 -0 0 11.86827 -15.82471 12.74028 8.785608 7.549097 -22.5579 -1.020577 -88.07853 19.93271 14.28216 0 0 -20.93555 8.089138 10.11562 2.495161
2.105363 105.631 70.0856 0.7508073 -5.202586 -0.3694984 4.712034 2.726527 4.023709 -0 11.14754 -0 -5.563598 -10.24769 -2.570776 -1.741937 -15.19208 -6.074322 -0 55.16992 -0 -5.468906 -5.476621 15.40156 -2.220135 -1.151129 4.104307 2.792403 10.41318 -8.857618 0.2575489 19.67059 8.260903 4.509791 -23.27197 7.534708 5.68123 -16.69123 12.54476 86.50784 32.8997 -20.80773 -0 0 11.95177 -16.90254 12.88409 9.410592 7.264433 -22.4814 -1.372602 -87.83235 19.9961 14.40313 0 0 -20.93582 7.129062 9.662281 3.751012
2.166267 105.5627 75.36988 0.7825566 -5.888302 -0.9411784 4.631985 7.212335 3.826647 -0 9.991466 -0 -4.859328 -11.98067 -2.369371 -0.1910124 -19.67405 -4.674537 -0 45.70609 -0 -5.135046 -5.883665 17.4351 -2.218413 -1.049982 4.221586 2.554881 10.4899 -8.677271 0.2856543 19.7812 8.094402 4.425726 -22.96736 7.341764 5.320796 -16.85967 12.48215 86.67164 32.45892 -20.41062 -0 0 12.04024 -17.86081 12.8186 9.95288 7.018165 -22.35518 -1.643174 -87.73133 20.11347 14.68982 0 0 -20.74783 6.350624 9.273314 4.745213
